<?xml version="1.0" encoding="UTF-8"?>
<svg version="1.1" viewBox="0 0 900 900" width="225" height="225" xmlns="http://www.w3.org/2000/svg">
<path transform="translate(443,31)" d="m0 0h23l25 1 36 4 28 5 28 7 36 12 27 12 16 8 15 8 24 14 20 14 18 14 13 11 13 12 18 18 7 8 9 10 11 14 14 19 14 22 13 24 12 25 10 26 9 32 8 38 4 30 1 14v39l-5 38-8 37-7 27-9 27-13 30-10 19-14 23-8 11-12 17-10 12-7 8-14 15-16 16-8 7-10 9-9 7-16 12-21 14-20 12-23 12-16 8-28 11-24 8-30 7-28 5-36 4-19 1h-47l-31-2-36-5-30-7-23-7-21-8-26-11-29-15-26-16-17-12-17-13-11-9-14-12-22-22-7-8-12-14-15-20-10-15-15-25-15-30-13-34-7-23-7-33-4-32-1-12-1-27v-32l2-25 2-17 7-33 7-24 7-20 11-26 12-24 11-19 14-20 10-14 11-13 9-11 15-16 18-18 11-9 16-13 14-10 27-18 17-10 15-8 28-13 36-13 29-8 36-7 33-4z" fill="#FCFCFC"/>
<path transform="translate(448,176)" d="m0 0h17l18 1 32 5 25 6 28 10 29 14 17 10 16 11 14 11 15 14 12 12 7 8 8 10 12 17 9 15 9 17 9 21 8 24 5 21 4 27v46l-4 28-5 21-7 22-9 21-8 16-10 17-12 17-9 11-11 12-7 8-12 11-14 11-18 13-24 14-21 10-28 10-27 7-26 4-11 1h-46l-25-3-24-5-26-8-20-8-23-11-17-10-14-10-13-10-12-11-10-9-7-7-7-8-8-10-13-18-12-20-12-25-8-22-7-28-4-24-1-13v-33l2-22 6-29 6-20 8-22 13-25 11-18 20-26 15-16 11-10 11-9 13-10 13-9 21-12 23-11 25-9 23-6 15-3 23-3z" fill="#FCFCFC"/>
<path transform="translate(443,31)" d="m0 0h23l25 1 36 4 28 5 28 7 36 12 27 12 16 8 15 8 24 14 20 14 18 14 13 11 13 12 18 18 7 8 9 10 11 14 14 19 14 22 13 24 12 25 10 26 9 32 8 38 4 30 1 14v39l-5 38-8 37-7 27-9 27-13 30-10 19-14 23-8 11-12 17-10 12-7 8-14 15-16 16-8 7-10 9-9 7-16 12-21 14-20 12-23 12-16 8-28 11-24 8-30 7-28 5-36 4-19 1h-47l-31-2-36-5-30-7-23-7-21-8-26-11-29-15-26-16-17-12-17-13-11-9-14-12-22-22-7-8-12-14-15-20-10-15-15-25-15-30-13-34-7-23-7-33-4-32-1-12-1-27v-32l2-25 2-17 7-33 7-24 7-20 11-26 12-24 11-19 14-20 10-14 11-13 9-11 15-16 18-18 11-9 16-13 14-10 27-18 17-10 15-8 28-13 36-13 29-8 36-7 33-4zm-21 26-27 3-34 6-30 8-30 10-26 11-20 10-23 13-15 10-17 12-17 14-11 9-16 16-7 6-7 8-12 14-13 17-10 14-13 21-13 24-12 27-9 25-8 30-5 25-3 22-1 12v52l3 29 5 28 6 24 9 27 11 26 10 21 14 24 8 12 13 18 14 17 12 13 9 10 7 7 8 7 12 11 17 13 20 14 18 11 18 10 29 14 23 9 24 8 36 9 31 5 32 3h43l40-4 28-5 32-8 33-11 30-13 25-13 20-12 16-11 16-12 14-12 20-18 12-12 7-8 12-14 15-20 13-20 12-21 9-17 12-29 10-30 6-24 5-28 3-29v-47l-3-29-3-19-7-30-12-36-9-21-9-19-12-21-16-24-8-11-13-16-9-10-7-8-18-18-8-7-13-11-20-15-15-10-20-12-23-12-26-12-24-9-27-8-26-6-33-5-19-2z" fill="#05275C"/>
<path transform="translate(427,158)" d="m0 0h58l16 2 27 5 25 7 24 9 24 11 24 14 16 11 14 11 13 12 7 6 7 8 13 14 15 20 13 21 12 23 9 22 8 26 5 24 3 23 1 12v24l-3 28-5 26-6 21-9 25-12 25-7 12-14 21-8 10-12 14-21 21-11 9-8 7-19 13-25 15-24 11-24 9-31 8-23 4-18 2h-51l-26-3-26-5-24-7-24-9-25-12-17-10-12-8-12-9-11-9-10-9-12-11-7-8-9-10-7-9-9-12-11-18-12-23-9-21-7-21-5-21-3-19-1-12v-48l2-23 5-25 6-20 9-24 9-19 13-22 11-16 8-10 12-14 26-26 16-12 18-13 23-13 27-13 26-9 22-6 26-5zm21 18-19 1-29 4-25 6-27 9-18 8-23 12-11 7-18 13-11 9-11 10-8 7-14 15-9 12-13 18-14 25-7 15-7 19-6 20-6 29-2 22v33l2 20 5 26 7 25 8 20 12 25 12 19 9 12 7 9 9 10 7 8 8 8 8 7 13 11 14 10 14 9 18 10 24 11 30 10 25 6 20 3 11 1h46l25-3 25-5 26-8 20-8 21-10 20-12 18-13 11-9 14-12 7-7 7-8 12-14 14-20 11-19 8-16 8-19 8-25 5-24 3-22v-46l-5-32-5-20-9-25-9-20-12-22-11-16-9-12-18-20-14-14-11-9-13-10-17-11-16-9-25-12-28-10-25-6-32-5-18-1z" fill="#04265C"/>
<path transform="translate(248,442)" d="m0 0 6 2 15 8 16 11 17 11 11 8 34 22 14 8 10 7-4 4-10 8-4 3 1 4 7 7 8 7 13 13 7 6-1 4-5 4-4 4-2 1 1 4 24 24 8 7 13 11 17 17-1 4-5-2-29-19-9-6-8-4v-2l-5-1-12-8-16-10-11-8-7-4-10-7-6-5 2-4 13-10 4-4-5-2-16-16-8-7-7-6-3-6 3-1v-2l9-7 2-1 1-3-4-1-11-10-30-30-3-2v-2l-4-2-16-16z" fill="#EDB615"/>
<path transform="translate(655,446)" d="m0 0 2 1-9 7-8 7-4 7-5 5-13 12-9 8-8 7-10 9-1 2 6 2 9 7 1 4-9 7-12 11-13 12-3 3-1 4 2 1v2l5 2 10 8v3l-15 9-14 9-26 17-24 16-11 7-15 9-14 7-4 1-1 2 1-4 3-4 5-3 11-9 11-10 8-7 3-1v-2l8-7 13-13 4-1 1-5-9-6-3-3-1-6 3-1 2-4 3-1 1-3 11-9 16-15h2v-2l-16-14-5-1 3-3 14-8 15-10 19-12 18-11 17-11 23-15z" fill="#EEB715"/>
<path transform="translate(349,355)" d="m0 0h3l10 23 11 25 13 29 10 23 1 6-17-6-7 1-9 4-8 8-3 4-4-1-6-9-8-4-9-1-12 3-5 3h-2l1-5 10-26 13-32 16-40z" fill="#04265C"/>
<path transform="translate(560,355)" d="m0 0h3l8 20 16 36 11 25 9 21-1 3-13-4h-12l-9 6-7 8-2 3-3-1-5-8-6-5-7-2h-9l-11 4-5 2 1-5 28-70 13-32z" fill="#04265C"/>
<path transform="translate(458,272)" d="m0 0 4 2 8 20 16 36 17 39 2 5v3l-6-1-4-2-13-1-8 3-8 7-5 7-3-1-6-9-6-4-6-2h-7l-10 3-5 3h-2l2-9 34-85 5-13z" fill="#04265C"/>
<path transform="translate(443,31)" d="m0 0h23l25 1 36 4 28 5 28 7 36 12 27 12 16 8 15 8 24 14 20 14 18 14 13 11 13 12 18 18 7 8 9 10 7 9v2h-2v-2l-3-1-6-8-1-3-4-2v-2l-4-2-11-12-7-7v-2l-4-2v-2l-4-2-7-7-13-10-10-7v-2l-4-2-17-12-15-10-25-14-23-12-27-12-27-10-21-6-30-7-27-4-28-2h-62l-31 3-22 3-16 4-17 4-25 7-30 11-17 8-21 10-24 14-11 7-16 11-20 16-11 9-15 14-13 12-13 14-9 11-8 9-14 19-11 17-9 15-8 16-11 23-9 23-6 17-6 22-6 29-5 34-1 50h-1l-1-11v-32l2-25 2-17 7-33 7-24 7-20 11-26 12-24 11-19 14-20 10-14 11-13 9-11 15-16 18-18 11-9 16-13 14-10 27-18 17-10 15-8 28-13 36-13 29-8 36-7 33-4z" fill="#050C1E"/>
<path transform="translate(202,172)" d="m0 0 9 2 5 5 3 7-1 6h13l8 7 3 7v9l-6 9-15 14-11 10-7-6-4-4v-2h-2l-7-8-24-26 1-4 13-12 11-9 7-4z" fill="#04265C"/>
<path transform="translate(579,91)" d="m0 0 6 1 27 12 9 8 2 5v9l-5 8-5 4-3 1h-9l5 23 1 12-15-7-1-1-4-24-3-6-3-3-4-1-10 22-2 1-10-4 1-9 8-17 13-29z" fill="#04265C"/>
<path transform="translate(719,175)" d="m0 0 4 1 7 7-1 7-12 24-13 28-3 5-4-2-6-5 1-7 3-6v-5l-14-15-4-1-9 5-4-1-7-7 1-4 27-11z" fill="#04265C"/>
<path transform="translate(289,240)" d="m0 0 4 1 12 12 7 8 12 14 1 4-8 6-8-8-7-8-3-2 9 16 3 5-1 5-5 4h-5l-15-10-6-3 1 3 4 2 11 12 1 4-5 6-4-1-12-11-9-11-12-12 1-5 8-7 4-1 16 9 7 5-1-4-11-21 1-4z" fill="#CE2516"/>
<path transform="translate(243,135)" d="m0 0h5l19 14 23 16 12 9-4 4-7 4-5-2-7-5-5 1-13 8-4 3 2 10 1 4-10 8-3-1-3-9-5-25-5-26v-7z" fill="#04265C"/>
<path transform="translate(461,73)" d="m0 0 10 1 3-1 4 9 22 55v2h-14l-3-5-4-9-25-1-2 8-3 7h-13l-1-2 10-26 11-28z" fill="#04265C"/>
<path transform="translate(515,76)" d="m0 0 10 1 35 7 3 1-2 11h-7l-27-5-2 12 17 3 14 3-1 8-2 4-27-5h-4l-3 15 15 2 19 4-1 12-8-1-40-8-1-4z" fill="#04265C"/>
<path transform="translate(645,121)" d="m0 0 6 2 15 9 17 11 5 5-6 7-6-1-22-15h-3l-5 8 2 4 15 9 8 6-1 4-4 5-5-1-22-14-4 4-4 6 1 4 16 10 10 7 1 3-3 3-2 3-6-1-17-11-17-10-2-2 1-4 9-15 10-15 10-16z" fill="#04265C"/>
<path transform="translate(383,82)" d="m0 0h2l2 7-1 5-29 8h-2l3 12 9-2 19-5h4l1 12-28 7h-2l3 10v5l7-1 26-7 4 1 2 6v4l-42 12h-7l-4-15-12-42v-4l16-5z" fill="#04265B"/>
<path transform="translate(307,103)" d="m0 0h12l6 3 4 5-1 5-6 3h-5l-4-3-9 1-6 4-1 5 3 2 13-1 16-1 7 2 5 5 3 6v14l-6 8-8 5-12 4h-9l-9-4-6-7v-3l9-5 4 1 5 4 7 1 10-5 1-2v-7l-5-2-27 2-7-3-5-5-3-6 1-9 4-7 8-6z" fill="#04265C"/>
<path transform="translate(742,624)" d="m0 0h11l9 4 8 7 3 4 2 6v10l-5 10-8 6-5 2-7 1-10-3-10-7-6-9v-12l6-11 7-6z" fill="#05275D"/>
<path transform="translate(479,778)" d="m0 0h16l8 5 5 8 2 6v15l-3 6-8 7-9 3h-11l-8-4-6-8-2-6v-15l3-7 6-7z" fill="#04265C"/>
<path transform="translate(426,195)" d="m0 0h14l6 3 4 7 1 10-6 8-2 1 1 4 9 12 4 8-3 1h-11l-4-4-8-11-4-4-5-1-1 21-1 1h-11l-2-27-1-26 4-2z" fill="#CF2616"/>
<path transform="translate(422,778)" d="m0 0 25 2 6 3 4 5 3 8v14l-3 9-5 6-6 3h-27l-1-1v-17l2-30z" fill="#05275D"/>
<path transform="translate(277,731)" d="m0 0 6 2 8 4-1 10-3 14v6l10-11 7-8 2-2 6 1 8 4-1 5-12 23-8 16-5-1-4-2 1-5 11-21 1-3h-2l-2 4-12 14-5 6-9-4 1-8 5-21 1-2-3 3-8 16-4 7-5-1-4-2 2-6 8-16 8-15z" fill="#04265C"/>
<path transform="translate(678,337)" d="m0 0 9 1 6 4 4 6 2 6v12l-6 9-5 1-3-1-2-8 3-5v-8l-3-4-3-1-1 5v15l-2 8-4 5-5 3-4 1h-7l-8-3-6-9-3-10 1-8 5-8 9-5 4 7v5l-5 4v10l5 4h4l1-2 1-21 4-8 4-3z" fill="#CF2816"/>
<path transform="translate(217,332)" d="m0 0h8l4 2-2 6-5 5-8 2-1 3v7l5-1 8-7 6-5 4-2h10l6 3 6 7 2 9-4 10-6 8-8 4h-8l-6-2-1-5 5-5 11-2 3-5v-8l-5-1-12 10-8 5h-8l-8-3-4-5-1-3v-9l5-10 5-5z" fill="#CF2716"/>
<path transform="translate(333,216)" d="m0 0h10l6 4 3 4 2 6v9l-3 5-9 6-5 3 2 6 5 10-1 4-10 3-15-25-11-18 2-4 16-9z" fill="#CE2316"/>
<path transform="translate(521,202)" d="m0 0 10 1 2 2 3 32 1 11v14l-8-1-5-3-1-12-9-2-4-2h-5l-5 6-1 2-9-1-4-2 2-5 10-13 11-13 7-10z" fill="#CE2416"/>
<path transform="translate(237,703)" d="m0 0 6 2 13 10 8 7 2 6-2 8-5 6-7 2h-5v9l-1 11-1 3-6-2-3-2-1-23-2-6-2-1-5 5-7 10-5-2-4-3 2-5 10-13 10-14z" fill="#04265C"/>
<path transform="translate(385,199)" d="m0 0h8l2 4v6l-22 5h-4l1 7 4 1 13-3 9-1 2 11-24 5 2 10 4 1 5-2 14-3h5v10l-15 4-19 4h-5l-7-32-3-15v-5z" fill="#CE2416"/>
<path transform="translate(245,283)" d="m0 0 4 2 2 2-1 5-12 17 1 5 6-1 5-7 9-9 5 2 1 1-1 7-9 11-2 5 8 5 4-4 9-11 3-5 5 2 4 3-1 4-8 9-10 13-4 6-5-2-19-14-13-11-5-4 2-5 11-13 9-12z" fill="#CE2316"/>
<path transform="translate(521,662)" d="m0 0 2 1 3 17 5 31v4l-11 1-4-19v-3l-11 2h-8l3 18v5l-2 1h-9l-2-9-6-41 9-3 3 1 2 14 1 4 9-1 9-2-2-13v-6z" fill="#04265B"/>
<path transform="translate(451,668)" d="m0 0h11l4 9 13 32 4 11h-13l-4-11h-19l-4 10-2 1h-10l1-5 14-36z" fill="#05275D"/>
<path transform="translate(760,578)" d="m0 0 5 1 20 9 20 10-1 6-5 4-18 3-13 1v2l9 3 14 7 1 5-4 4-5-1-16-8-21-9-1-4 3-7 2-1 28-3h4v-2l-7-2-14-7-5-2z" fill="#04265C"/>
<path transform="translate(659,287)" d="m0 0h4l4 6-2 4-8 6-11 7-10 8-2 2 1 5 4 5 8-1 27-18 4-1 5 7-3 5-15 10-14 9-6 2-10-1-8-7-5-10v-8l4-7 13-10 10-7z" fill="#CF2916"/>
<path transform="translate(125,521)" d="m0 0 3 1 1 2v9l-17 16-6 5h7l17-4h4l2 5-1 5-41 9h-6l-2-9 21-21 3-2-11 1-14 3-4-1-2-8 7-2 26-6z" fill="#04265C"/>
<path transform="translate(376,771)" d="m0 0 9 1 3 5 9 25v3h2l2-13 3-16 9 2v7l-8 39-1 2-10-2-5-12-7-17v-2h-2l-1 11-2 14-1 2-9-1-1-3 9-44z" fill="#04265C"/>
<path transform="translate(677,694)" d="m0 0h6l22 10 15 7 6 3-1 4-6 5-9-3-5 1-9 8 1 8 2 6-6 5-4-1-10-25-7-17 1-7z" fill="#04265C"/>
<path transform="translate(340,760)" d="m0 0 9 2 2 1 3 28 2 24-7-1-5-2v-12l-10-2-8-2h-2l-2 5-2 3-8-1-3-1 2-4 13-18 12-15z" fill="#04265C"/>
<path transform="translate(215,683)" d="m0 0h5l4 5 1 4-12 23-11 19h-4l-5-6 4-8-1-5-9-10-12 2-5-5v-4l28-10z" fill="#04265B"/>
<path transform="translate(135,567)" d="m0 0 4 1 9 32-1 2-8 1-7-21v-2l-7 1v7l4 14-1 4-4 2h-3l-5-15-2-7-6 1-4 1 2 10 4 16-4 2-5-1-10-30 1-5 26-8z" fill="#04265C"/>
<path transform="translate(26,537)" d="m0 0 2 4 3 10 6 22 4 12 6 13 3 8 4 9 2 4v4h2l8 16 10 19 12 19 10 15 10 13 12 14 8 8 7 8 11 11 7 8 1 3 4 2 8 6v2l4 1v2l5 2 19 13 11 8 16 10 26 15 8 5 7 4 3 3-5-1-29-15-26-16-17-12-17-13-11-9-14-12-22-22-7-8-12-14-15-20-10-15-15-25-15-30-13-34-7-23-4-18z" fill="#040B1E"/>
<path transform="translate(790,494)" d="m0 0 8 1 1 3-5 19v3l9 3 2-13 3-9 1-1 8 1-4 17v7l10 3 3-14 3-11 2-1 7 1-2 12-6 23-1 2-8-1-36-9-3-1 1-9 6-25z" fill="#05275D"/>
<path transform="translate(618,741)" d="m0 0 9 3 2 3v5l-4 2-5-1-1-1h-7l-6 3v4l7 1 5-1h13l5 3 4 6v12l-5 6-9 5-4 1h-10l-6-4-4-5 1-3 7-2 5 3 1 1h6l7-4 1-4-3-3-21 1-6-3-4-4-1-3v-7l4-7 6-4 6-2z" fill="#04265C"/>
<path transform="translate(577,756)" d="m0 0h5l2 4v3l-17 8-5 2 1 6 3 2 18-7h4l1 2v6l-19 7-1 3 4 8 5-1 16-7 5 1 2 6-15 7-18 7-4-1-6-16-11-25 1-3z" fill="#05275D"/>
<path transform="translate(427,158)" d="m0 0h58l16 2 27 5 25 7 24 9 22 10v3l-4-1-19-9-11-5-8-3-9-2-6-2-15-4-25-5-19-2h-52l-25 3-5 2-16 2-10 4-18 6-22 8-16 7-16 8-12 7h-2v2l-11 6-4 4-8 4h-2l-1 3-3 2-2 2-6 2-2 4-3 4h-2l-2 5-6 5-3 4h-2l-2 4-6 5-4 4-6 7-3 1 2-4 9-10 7-8 23-23 16-12 18-13 23-13 27-13 26-9 22-6 26-5z" fill="#020A1D"/>
<path transform="translate(94,476)" d="m0 0h11l9 3 7 7 3 8v11l-4 7-6 5h-5l-2-5 1-4 5-4v-10l-2-5-12-1-12 2-3 1-1 9 2 5 8 4-1 9-4 1-7-3-5-5-3-6v-11l5-10 9-6z" fill="#04265C"/>
<path transform="translate(650,719)" d="m0 0h9l6 2-1 4-4 5-10-1-6 6v8l4 7 8 7 2 1h6l5-4 1-2v-12l9-2 2 4v12l-3 5-8 7-11 3-9-2-8-6-7-9-2-6v-10l4-8 8-7z" fill="#05275D"/>
<path transform="translate(400,666)" d="m0 0h13l24 2-1 5-2 4h-23l-1 10h11l10 2-1 7-1 1h-20l-2 20h-7l-4-1v-10z" fill="#04265B"/>
<path transform="translate(567,218)" d="m0 0 9 2 1 4-7 17-8 16 1 5 10 4 10 6-1 5-4 4-19-8-14-7 1-6 7-15 10-21z" fill="#CE2616"/>
<path transform="translate(607,236)" d="m0 0 5 1 14 12 11 9 2 4-5 6-5-2-7-5-5 5-14 15-8 9-5-2-4-4 1-3 5-5 11-13 7-9-1-5-6-4 1-6z" fill="#CE2516"/>
<path transform="translate(700,673)" d="m0 0 4 2 11 8 14 11 5 1 8-11 5-5 6 2-1 6-14 18-6 5-11-8-26-20 2-5z" fill="#04265C"/>
<path transform="translate(149,605)" d="m0 0 5 1 2 3v6l-32 16 1 5 8 15-1 4-7 2-11-21-4-6 1-4 27-15z" fill="#04265C"/>
<path transform="translate(481,787)" d="m0 0h10l6 4 2 4 1 11-3 9-6 4-4 1-8-3-4-5-2-7v-10l4-6z" fill="#FDFDFD"/>
<path transform="translate(743,634)" d="m0 0 9 1 9 6 4 7v7l-4 6-3 2h-10l-10-6-4-6-1-6 3-6 5-4z" fill="#FDFDFD"/>
<path transform="translate(646,268)" d="m0 0 5 5 1 5-11 10-11 9-9 8-8 7-6-5-1-5 14-14 11-9 8-7z" fill="#CF2616"/>
<path transform="translate(430,788)" d="m0 0h9l7 3 3 5v12l-3 9-5 3h-8l-4-2-1-5 1-24z" fill="#FDFDFD"/>
<path transform="translate(427,158)" d="m0 0h58l16 2 27 5 25 7 24 9 22 10v3l-4-1-19-9-11-5-8-3-9-2-6-2-15-4-25-5-19-2h-52l-25 3-5 2-13 2-4-2v-1l26-5z" fill="#020F28"/>
<path transform="translate(655,446)" d="m0 0 2 1-9 7-4 4-7 3-11 7-38 24-21 13-26 16-3 2h-5l3-3 14-8 15-10 19-12 18-11 17-11 23-15z" fill="#031230"/>
<path transform="translate(218,204)" d="m0 0 7 1 3 4-1 7-12 12-5 1-9-11 6-7 9-6z" fill="#FDFDFD"/>
<path transform="translate(587,108)" d="m0 0 7 1 10 5 4 3 1 6-4 5h-8l-15-7 1-5z" fill="#FDFDFD"/>
<path transform="translate(167,767)" d="m0 0 3 1v2l5 2 19 13 11 8 16 10 26 15 8 5 7 4 3 3-5-1-29-15-26-16-17-12-17-13-4-3z" fill="#030B1D"/>
<path transform="translate(200,185)" d="m0 0 5 1 3 5-1 6-7 7-6 5-4-1-6-8 1-4 13-10z" fill="#FDFDFD"/>
<path transform="translate(427,158)" d="m0 0h58l4 2v1h-58l-25 3-5 2-13 2-4-2v-1l26-5z" fill="#031331"/>
<path transform="translate(562,586)" d="m0 0h5v2l-11 7-26 17-9 6-3-1 7-6h2l1-3 9-6 11-8z" fill="#D13116"/>
<path transform="translate(269,218)" d="m0 0 2 1-5 5h-2l-1 3-3 2-2 2-6 2-2 4-3 4h-2l-2 5-6 5-3 4h-2l-2 4-6 5-4 4-6 7-3 1 2-4 9-10 7-8 23-23 16-12z" fill="#031331"/>
<path transform="translate(240,716)" d="m0 0 5 2 10 9v5l-3 2h-5l-7-5-3-1v-6z" fill="#FDFDFD"/>
<path transform="translate(248,152)" d="m0 0 5 3 14 10v2l-10 6h-2l-1 2-2-2-4-17z" fill="#FDFDFD"/>
<path transform="translate(465,92)" d="m0 0 3 1 6 14 1 5-15 1-1-3z" fill="#FDFDFD"/>
<path transform="translate(709,192)" d="m0 0h3l-1 5-7 14h-3l-5-6-3-2 1-4z" fill="#FDFDFD"/>
<path transform="translate(521,597)" d="m0 0h2l-2 4-11 11-5 6-8 7-10 9-11 9-6 1 5-5 14-12 12-11h2v-2l8-7z" fill="#03112C"/>
<path transform="translate(432,206)" d="m0 0 5 2 1 1-1 7-2 1-14 1-2-7 1-4z" fill="#FDFDFD"/>
<path transform="translate(332,229)" d="m0 0h6l3 3v5l-8 6h-5l-4-7 1-4z" fill="#FDFDFD"/>
<path transform="translate(655,446)" d="m0 0 2 1-9 7-4 4-7 3-11 7-9 5-3-2 16-10 14-9z" fill="#0D295A"/>
<path transform="translate(556,538)" d="m0 0 2 1-12 12h-4l-2 4-16 15-5 6-2 2-1-5 3-1 2-4 3-1 1-3 11-9 16-15z" fill="#0D2558"/>
<path transform="translate(279,461)" d="m0 0 5 1 10 7 11 7 8 6 17 11 1 2-6-2-11-7-10-7-19-12-6-5z" fill="#C33A1C"/>
<path transform="translate(417,159)" d="m0 0h9v1h-5v2l-15 2-5 2-13 2-4-2v-1l26-5z" fill="#020D25"/>
<path transform="translate(455,684)" d="m0 0 4 2 3 10v3h-12z" fill="#FDFDFD"/>
<path transform="translate(341,775)" d="m0 0 2 1v14l-2 1-9-3 4-8z" fill="#FDFDFD"/>
<path transform="translate(685,707)" d="m0 0 9 3 4 3-1 4-5 4-4-4-3-6z" fill="#FDFDFD"/>
<path transform="translate(209,694)" d="m0 0h2l-1 5-6 9h-3l-4-7 1-2z" fill="#FDFDFD"/>
<path transform="translate(352,539)" d="m0 0 4 1 8 7 18 18 3 2 1 4-3-1-14-14-8-7-9-9z" fill="#D23F17"/>
<path transform="translate(600,193)" d="m0 0 6 2 19 11 5 4v2l-5-1-9-6-16-10z" fill="#020A1E"/>
<path transform="translate(141,657)" d="m0 0 5 5-1 4-6 4-4-4-1-5z" fill="#042151"/>
<path transform="translate(564,177)" d="m0 0 6 1 29 13v3l-4-1-19-9-12-6z" fill="#020B20"/>
<path transform="translate(830,487)" d="m0 0h9l1 2-1 7-3 1-7-2v-7z" fill="#04204E"/>
<path transform="translate(521,219)" d="m0 0 2 2v14l-9-3 1-5z" fill="#FDFDFD"/>
<path transform="translate(244,241)" d="m0 0v3l-5 6-5 5h-2l-2 4-6 5-4 4-6 7-3 1 2-4 8-9 8-7z" fill="#020513"/>
<path transform="translate(340,558)" d="m0 0h2l-2 4-9 9-5 4h-5l2-4 13-10z" fill="#03102B"/>
<path transform="translate(560,505)" d="m0 0 2 1-1 3-15 9-8 5h-5l3-3 14-8z" fill="#031434"/>
<path transform="translate(388,615)" d="m0 0 5 2 17 13-3 1-15-9-3-3z" fill="#D54416"/>
<path transform="translate(521,597)" d="m0 0h2l-2 4-11 11-5 6-6 1 2-3h2v-2l8-7z" fill="#150B1D"/>
<path transform="translate(535,168)" d="m0 0 8 1 21 7v2l-16-4-6-2-7-2z" fill="#020E27"/>
<path transform="translate(209,277)" d="m0 0 2 1-3 6-1 3h-3l-1 4-3 2-5 9-3 2 2-6 8-11z" fill="#020E26"/>
<path transform="translate(487,631)" d="m0 0 2 1-10 9-5 3-4-1 11-9z" fill="#05275D"/>
<path transform="translate(417,159)" d="m0 0h9v1h-5v2l-15 2-3-1 1-2z" fill="#03102B"/>
<path transform="translate(574,496)" d="m0 0h3v3l-14 9-3-1 5-5z" fill="#03122F"/>
<path transform="translate(563,561)" d="m0 0 9 3 8 6v3l-5-2-12-8z" fill="#B92C1E"/>
<path transform="translate(309,480)" d="m0 0 14 8 8 6-2 1-9-5-11-8z" fill="#7E3433"/>
<path transform="translate(613,472)" d="m0 0 4 1-10 7-3 2-3-1 5-5z" fill="#0B0F28"/>
<path transform="translate(392,605)" d="m0 0 4 1 14 13-1 2-11-9z" fill="#D54216"/>
<path transform="translate(556,538)" d="m0 0 2 1-12 12h-2l1-4 7-7z" fill="#8B1C2D"/>
<path transform="translate(269,218)" d="m0 0 2 1-5 5h-2l-1 3-3 2-2 2-6 1 4-4z" fill="#03102B"/>
<path transform="translate(525,564)" d="m0 0 3 1-6 7-4 6-2-2 1-4h2l2-4 3-1z" fill="#042356"/>
<path transform="translate(515,163)" d="m0 0 8 1 13 3-1 2-13-2-5-1v-2z" fill="#03122F"/>
<path transform="translate(625,464)" d="m0 0h3v3l-11 6-3-2z" fill="#041C45"/>
<path transform="translate(531,589)" d="m0 0 2 1-2 4-7 5-1-2-2-1 5-3h2l1-3z" fill="#BD371E"/>
<path transform="translate(350,507)" d="m0 0 6 2 9 6-3 1-6-3-6-4z" fill="#6F2738"/>
<path transform="translate(560,355)" d="m0 0h3v5h-2l-3 6h-2l1-5z" fill="#020D24"/>
<path transform="translate(544,515)" d="m0 0 3 1-4 4-5 3h-5l3-3z" fill="#031A41"/>
<path transform="translate(349,355)" d="m0 0h3l1 5-5 4-2 2 2-9z" fill="#020E26"/>
<path transform="translate(631,212)" d="m0 0 4 1 7 5v2l-6-1-5-5z" fill="#020B20"/>
<path transform="translate(794,187)" d="m0 0 4 1 8 10v2h-2v-2l-3-1-6-8z" fill="#020C22"/>
<path transform="translate(650,226)" d="m0 0 4 1 8 7v2l-4-1-1-3-4-1z" fill="#020D25"/>
<path transform="translate(154,757)" d="m0 0 4 2 8 6 1 4-6-4-7-6z" fill="#0A142A"/>
<path transform="translate(590,512)" d="m0 0 6 1 7 5v3h-3l-5-5-5-3z" fill="#C0351C"/>
<path transform="translate(316,508)" d="m0 0h2l-1 3-9 6-3 1-1 3-1-2 5-5 5-4z" fill="#042151"/>
<path transform="translate(420,368)" d="m0 0 1 3-1 8-4 1 2-9z" fill="#020D24"/>
<path transform="translate(801,238)" d="m0 0 4 4 4 6v2h2l1 5h-2l-9-14z" fill="#020F28"/>
<path transform="translate(584,490)" d="m0 0 2 1-1 3-8 4-1-3z" fill="#031637"/>
<path transform="translate(516,724)" d="m0 0h11v2l-5 1h-7z" fill="#02091C"/>
<path transform="translate(469,644)" d="m0 0 2 1-6 7h-3l-1 2 1-4 3-4z" fill="#BC9024"/>
<path transform="translate(521,597)" d="m0 0h2l-2 4-7 7-1-3z" fill="#0B2558"/>
<path transform="translate(498,619)" d="m0 0 4 1-9 8v-3z" fill="#031332"/>
<path transform="translate(220,264)" d="m0 0 2 1-3 5-7 6v-3z" fill="#03112C"/>
<path transform="translate(790,222)" d="m0 0 3 2v2h2l5 10-3-1-7-10z" fill="#020E27"/>
<path transform="translate(26,537)" d="m0 0 2 4 2 5v5l-2 1-2-9z" fill="#020D25"/>
</svg>
