<?xml version="1.0" encoding="UTF-8"?>
<svg version="1.1" viewBox="0 0 900 900" width="225" height="225" xmlns="http://www.w3.org/2000/svg">
<path transform="translate(420,67)" d="m0 0h58l21 2 30 5 25 6 33 11 23 10 21 10 22 13 15 10 15 11 16 13 12 11 5 4 6 7 17 17 9 11 13 17 12 18 9 15 12 23 9 19 10 26 8 27 6 27 4 27 1 12v61l-2 20-5 29-6 25-11 33-9 21-11 23-9 16-10 16-13 18-18 22-11 12-19 19-11 9-13 11-23 16-20 12-27 14-17 8-18 7-29 9-27 6-31 5-14 1h-55l-22-2-30-5-25-6-33-11-21-9-21-10-21-12-21-14-12-9-11-9-13-11-10-9-16-16-9-11-11-13-13-18-11-17-12-21-11-22-11-27-9-29-6-26-3-17-3-21-1-20v-35l1-22 6-36 6-26 8-26 13-32 8-16 9-17 12-19 12-17 12-15 9-11 35-35 14-11 10-8 16-11 17-11 26-14 22-10 24-9 18-6 30-7 32-5z" fill="#042D69"/>
<path transform="translate(420,67)" d="m0 0h58l21 2 30 5 25 6 33 11 23 10 21 10 22 13 15 10 15 11 16 13 12 11 5 4 6 7 17 17 9 11 13 17 12 18 9 15 12 23 9 19 10 26 8 27 6 27 4 27 1 12v61l-2 20-5 29-6 25-11 33-9 21-11 23-9 16-10 16-13 18-18 22-11 12-19 19-11 9-13 11-23 16-20 12-27 14-17 8-18 7-29 9-27 6-31 5-14 1h-55l-22-2-30-5-25-6-33-11-21-9-21-10-21-12-21-14-12-9-11-9-13-11-10-9-16-16-9-11-11-13-13-18-11-17-12-21-11-22-11-27-9-29-6-26-3-17-3-21-1-20v-35l1-22 6-36 6-26 8-26 13-32 8-16 9-17 12-19 12-17 12-15 9-11 35-35 14-11 10-8 16-11 17-11 26-14 22-10 24-9 18-6 30-7 32-5zm14 31-27 2-30 5-28 7-26 9-25 11-23 12-21 13-15 11-14 11-11 10-8 7-14 14-7 8-9 10-12 16-10 15-10 16-12 23-12 29-9 27-6 24-4 23-3 31v32l4 40 7 34 9 29 11 28 14 27 12 20 8 11 12 16 12 14 12 13 16 16 11 9 15 12 30 20 26 14 26 11 30 10 28 7 26 4 20 2h45l28-3 23-4 28-7 29-10 20-9 16-8 14-8 19-12 12-9 14-11 11-10 8-7 15-15 9-11 11-13 11-15 14-22 7-12 11-23 10-25 6-19 8-33 4-28 2-22v-29l-3-31-4-25-6-25-5-17-8-21-11-25-12-22-18-27-11-14-9-11-14-15-12-12-8-7-13-11-18-13-19-12-13-8-16-8-23-10-20-7-23-7-24-5-21-3-27-2z" fill="#052D68"/>
<path transform="translate(434,98)" d="m0 0h30l27 2 27 4 29 7 27 9 21 9 19 9 14 8 19 12 14 10 10 8 13 11 13 12 13 13 7 8 13 16 12 17 12 19 14 26 10 24 8 22 7 26 5 27 3 26 1 13v29l-3 31-4 24-8 32-8 23-10 24-10 19-8 14-16 24-11 14-12 14-11 12-13 13-8 7-16 13-15 11-24 15-14 8-24 11-21 8-19 6-29 7-26 4-20 2h-45l-28-3-23-4-30-8-23-8-26-11-28-15-25-17-13-10-13-11-10-9-17-17-9-11-9-10-10-14-8-11-14-24-12-23-11-28-9-29-7-34-4-40v-32l3-31 5-27 7-26 8-24 9-22 9-17 6-12 7-11 8-12 10-14 9-11 9-10 12-13 12-12 8-7 16-13 18-13 25-15 23-12 24-10 30-10 31-7 30-4zm0 31-24 2-24 4-25 6-30 10-24 11-17 9-19 12-14 10-16 13-12 11-8 7-12 13-11 14-10 13-12 18-12 21-9 19-9 24-7 24-5 24-3 19-2 24v24l2 26 4 25 5 22 7 22 10 25 9 19 16 27 14 19 12 14 9 10 18 18 8 7 16 13 15 10 13 8 16 9 23 11 28 10 25 7 28 5 19 2h43l29-3 25-5 23-6 28-10 18-8 22-12 14-9 14-10 14-11 10-9 14-13 7-8 10-11 10-13 12-17 9-15 13-24 11-27 9-29 4-19 4-26 2-28v-14l-2-29-5-31-7-28-9-25-8-19-12-22-11-18-8-11-12-16-14-15-9-10-11-10-11-9-17-13-17-11-19-11-23-11-28-10-25-7-26-5-30-3z" fill="#DDBB2B"/>
<path transform="translate(304,311)" d="m0 0h6l5 5 9 13 12 18 11 14 11 13 19 19 11 9 7 8 4 7 1 4v12l-3 7-8 16-5 15-3 17 1 11 5 12 9 12 11 8 10 6 16 8 4 4-1 7-6 11-10 15-7 6h-8l-5-4-1-6 2-9 3-9-6 3-6 8-11 11-8 4-7-1-5-6v-7l6-9 16-14 5-2v-3l-6 2-8 6-12 11-7 2-7-2-5-6v-9l4-5 10-7 14-8v-1l-7 1-21 13-10 2-8-4-2-4v-9l4-6 6-4 18-6 8-3 1-3-26 8-12 4h-9l-5-5-4-9v-6l4-6 4-3 11-2h17l13 1 1-3-34-2-13-2-6-4-3-5 1-8 5-6h11l19 7 23 10h2v-3l-23-11-19-11-10-8-5-6-1-9 4-5h8l24 13 17 10 7 4 4 1-5-5-15-8-13-8-24-16-8-7-6-10-2-9 3-2 6 1 11 10 17 13 20 14 16 10 6 1-4-4-16-10-16-12-13-10-13-11-11-11-6-10-3-6v-12l4-6 2-1h6l11 14 8 11 12 13 7 8 14 14 11 9 10 8h3l-1-4-5-2-10-9-8-7-13-13-9-11-9-10-8-11-10-14-4-8-2-6 1-6z" fill="#DDBB2B"/>
<path transform="translate(588,311)" d="m0 0 8 1 4 4-1 9-8 15-14 18-8 10-9 10-7 8-11 11-8 7-12 10-1 2 8-3 11-10 8-7 22-22 9-11 10-13 7-10 1-1h6l5 5 1 5v8l-3 7-6 10-12 12-8 7-15 12-15 11-18 11-4 2-1 3 8-2 20-13 17-12 13-10 12-11h7l1 1v7l-5 9-8 8-14 10-24 15-18 10h-2v4l10-5 16-9 21-12 5-2h7l4 4v7l-4 7-10 8-13 8-27 14-5 3-1 2 9-2 26-11 14-4h7l5 4 2 6-1 7-6 5-6 2-9 1-24 1-10 2v2l8-1h22l13 3 6 5 1 2v7l-3 8-5 5-9 1-16-5-18-5-5-1 3 3 23 8 8 5 3 4 1 6-2 6-6 5h-9l-9-4-17-10-6-2 5 5 9 5 10 7 4 4 1 8-3 6-4 3-7 1-5-1v-2l-4-2-13-12-8-4h-2l5 5 13 11 7 8 2 4-1 9-4 4-7 1-8-4-12-12-6-8-5-2 5 14-1 10-5 5-8-1-8-7-11-18-5-10 1-6 10-6 16-8 13-9 8-10 6-12v-27l-4-14-11-23-2-5v-12l6-12 8-9 10-8 12-11 7-7 20-25 9-13 14-22z" fill="#DDBB2B"/>
<path transform="translate(415,151)" d="m0 0h6l4 5 11 22 10 19 3 6-1 3-4 1h-14l-2-4v-4l-20 2-1 9-5 2-14 2-33 12-20 8-12 8-5-2-17-8h-6l6 11 6 8-1 3-12 8-4-2-8-11-22-33 2-4 11-7 17-11 4-2h10l5 3 5 6 1 3v9l-3 6 11 2 9 5 3 2v-4l-2-1 3-9 15-34-23 8-4-1-4-8v-2l12-5 29-11 7-1 3 6v7l-15 36v2l25-9 4-1 2 5 2-4 2-6 10-42 6-2z" fill="#FCFBF6"/>
<path transform="translate(311,264)" d="m0 0 4 2 5 8 8 19 8 16 9 16 12 16 9 10 10 10 14 11 11 9 10 9 6 8 5 12 1 4v16l-5 17-6 10-8 9-4 7-2 10 1 14 3 10 6 8 16 8 15 6 2 4-2 5h-10l-16-6-10-7-7-7-9-14-3-8v-15l4-13 4-9 11-22v-17l-4-9-8-11-17-17-8-7-6-7-5-5-9-10-11-14-12-17-9-14-6-16-3-15 1-8z" fill="#DDBB2B"/>
<path transform="translate(585,264)" d="m0 0 4 1 3 5v16l-4 14-6 12-9 14-10 14-11 14-9 10-7 8-16 16-8 7-7 7-7 11-3 10v10l3 10 9 17 5 13 2 10v11l-3 11-7 11-9 9-13 8-17 6-5-1-3-3 1-5 11-5 12-5 10-6 6-9 2-6 1-7v-13l-4-10-8-10-6-9-5-11-2-12v-9l3-14 7-12 8-8 22-18 14-12 8-8 10-13 9-13 9-15 7-16 8-18z" fill="#DDBB2B"/>
<path transform="translate(693,277)" d="m0 0 3 1 10 17 11 19 1 6-6 3h-5l-6-9-7-13-6 1 1 6 10 17v3l-9 5-4-4-10-17h-4l-5 2 8 16 5 9v4l-7 2 1 2 43 3 14 2 3 4 3 11v5l-11 8-15 12-20 15h-3l-4-12v-6l6-4-1-7-3-10-1-1-8-1-4-8-4-11-10-16-10-17-4-8 3-3 11-6 26-15z" fill="#FCFBF7"/>
<path transform="translate(298,655)" d="m0 0h12l10 4 9 7 6 8 1 4v13l-3 8-6 9-7 7-7 3-6 1-11-2-11-6-7-7-4-8-1-3v-9l4-11 7-10 9-6z" fill="#FCFBF8"/>
<path transform="translate(409,696)" d="m0 0 24 1 12 2 8 4 6 7 2 6v19l-3 9-6 8-4 3-9 2h-13l-16-1-5-2 2-25z" fill="#FCFBF6"/>
<path transform="translate(565,669)" d="m0 0 7 1 6 4 4 5 2 11-4 6-1 3 7 3 17 13-1 3-14 6-7-1-8-7-8-5-6-1 8 19 1 4-12 6h-5l-8-16-15-32-1-5 5-3 27-12z" fill="#FCFBF8"/>
<path transform="translate(350,678)" d="m0 0 9 2 7 3 4 9 6 22 1 4h2l2-12 5-16 6 1 11 3-1 7-9 28-7 22-6-1-10-3-4-9-8-27-7 23-2 5-7-1-9-3-1-3 9-27 8-26z" fill="#FCFBF8"/>
<path transform="translate(644,224)" d="m0 0 5 1 4 5 7 6 14 16 2 6-1 9-5 6-6 3h-9l-4-1 1 4-2 10-5 15-4-2-9-10-2-5 5-16v-10l-8 6-8 9-4-2-11-11 16-16 8-7z" fill="#FCFBF9"/>
<path transform="translate(251,604)" d="m0 0 5 1 4 4v2l4 2 1 4-11 11h-2l3 5 9 9 4-2 7-7 2-3 4 1 7 6v2l4 2-1 4-8 7-30 30-1 2-4-2-10-10 1-4 10-9 4-4-2-4-6-5-4-4-8 7-8 8-4-2-10-10 2-4 8-7 5-6 8-7z" fill="#FBFAF5"/>
<path transform="translate(519,688)" d="m0 0 3 1 4 24 2 18-2 9-8 9-7 3-11 2h-11l-8-4-5-6-4-9-4-20-2-12v-5l11-2h6l3 8 5 27 3 6 1 1h9l4-3v-12l-5-30 7-3z" fill="#FBFAF6"/>
<path transform="translate(606,640)" d="m0 0 6 2 17 11 26 16 5 3-1 4-11 8h-5l-3-3-5 1-12 9 2 10-5 5-9 6-2-2-6-20-5-16-6-18 1-5 8-7z" fill="#FCFBF7"/>
<path transform="translate(198,283)" d="m0 0 6 1 25 14 8 6 4 6 1 3v11l-5 12-7 9-8 5-2 1h-8l-13-5-26-14v-4l7-12 2-1 30 16 8 1 4-4 2-7-4-5-32-17 2-6 5-9z" fill="#FCFBF8"/>
<path transform="translate(653,596)" d="m0 0h7l7 3 1 3-8 10-3 3v-2l-8 1-4 6 1 3 5-1 10-7 6-4 7-2 8 1 7 5 5 9v9l-6 12-8 9-10 5h-8l-9-4v-3l9-12h5l1 1h5l4-2 2-7-2-3h-6l-15 10-8 2-9-1-5-4-4-9 2-11 9-13 9-6z" fill="#FCFBF7"/>
<path transform="translate(589,184)" d="m0 0 5 2 24 15 11 8v3l-6 8-4-2-9-6-11-6-3-1v7l15 10 5 3-1 6-4 5-5-1-10-7-7-4-4 1-2 3 1 4 16 10 6 4-1 6-4 6-5-1-22-14-14-9-1-3 10-16 11-17z" fill="#FCFBF7"/>
<path transform="translate(243,230)" d="m0 0 4 1 6 6-2 4-16 17 2 4 4 1 8-8 8-10 5 3 6 5-6 7-12 13-1 2 5 2 1 3 5-3 12-13 4-5 5 2 6 5-3 5-27 30-1 2-4-1v-2l-4-2-15-14-8-7-13-12 2-4 16-17 12-13z" fill="#FCFBF7"/>
<path transform="translate(536,163)" d="m0 0 7 1 12 5 1 2 1 32v28l-9-3-7-3-1-1-1-9-8-3-9-3-3 3-3 4-6-1-10-3-1-4 9-11 12-14 11-13z" fill="#FCFBF7"/>
<path transform="translate(166,350)" d="m0 0 9 2 2 1-1 9-4 17h8l5-18 1-1 9 1 2 2-2 12-3 9 11 2 10 3 1 5-3 13-9-1-46-12-2-1 2-10 8-30z" fill="#FBFAF5"/>
<path transform="translate(285,550)" d="m0 0 3 1 11 14 3 2 16-6h5l-2 4-8 11-2 4 8 11 5 6v2l-7-1-16-4-9 13-2 4h-3l-1-19v-3l-22-6v-2l12-5 9-4z" fill="#FBFAF5"/>
<path transform="translate(519,606)" d="m0 0 5 3 7 8 3 3 7-1 12-6h3l-1 6-5 8-2 4 1 5 9 10 4 3v2l-10-1-14-1-9 17h-4l-1-12v-10l-14-1-8-3v-3l17-7h2l-2-17z" fill="#FCFAF6"/>
<path transform="translate(377,600)" d="m0 0h3l-1 13-1 9 16 8 4 4-1 1-21 2-4 23-3-1-9-17-3-1-14 3h-6v-3l10-9 4-4-1-5-9-16-1-2 9 3 12 6 4-1z" fill="#FBFAF5"/>
<path transform="translate(615,567)" d="m0 0h3l-2 12-1 11 17 9 2 4-22 2-4 20-1 2-3-1-6-14-3-4-14 2-8 1v-3l14-13-1-7-7-14 1-2 5 2 14 7 4-2z" fill="#FBFAF5"/>
<path transform="translate(448,614)" d="m0 0 3 1 6 20 21 1 1 3-16 10 1 8 4 11-1 4-5-2-11-9-5 1-14 10h-3l1-4 5-15-1-4-11-8-5-3 1-2 21-1 4-10z" fill="#FBFAF6"/>
<path transform="translate(586,302)" d="m0 0h2l1 8-7 8-9 15-12 17-11 14-12 14-12 12-11 9-8 7-7 12-1 3v12l11 23 5 14 1 5v27l-6 12-8 10-12 9-15 8-12 6-3-1v-6l24-9 11-7 8-8 7-11 3-11v-11l-4-16-8-16-6-13-1-5v-10l3-10 7-11 14-14 8-7 15-15 9-11 10-12 10-14 9-14 6-10z" fill="#15111F"/>
<path transform="translate(310,302)" d="m0 0h2l6 12 13 19 9 12 11 13 7 8v2l4 2 7 8 13 12 12 12 7 10 3 8v17l-14 28-4 11-1 5v15l5 12 9 12 8 7 6 4 16 6 1 3-4 2-16-8-11-8-5-5-8-10-5-12-1-11 3-17 6-18 9-16 1-4v-12l-3-8-8-10-15-13-20-20-11-14-10-13-11-17-8-11-1-3-3-1-1-5z" fill="#15111F"/>
<path transform="translate(303,671)" d="m0 0h9l3 1 4 7 1 5-6 11-5 5-3 2h-8l-5-3-2-3v-9l5-10z" fill="#042D69"/>
<path transform="translate(597,327)" d="m0 0h2v5l2 7-5 2-10 14-10 13-14 15-20 20-11 9-6 4h-4l2-4 14-12 13-12 8-8 9-11 8-9 14-19 6-10z" fill="#15111E"/>
<path transform="translate(299,328)" d="m0 0 3 1 5 9 18 24 12 14 12 13 10 10 11 9 6 4 1 4-3 1-11-9-14-12-17-17-7-8-11-13-9-13-4-5-5-2 2-6z" fill="#15111E"/>
<path transform="translate(601,371)" d="m0 0 2 1-1 5h-2l1 5 3 1v1l-7 1-14 13-19 14-18 12-13 8h-6l1-4 11-6 18-12 14-11 10-8 16-15z" fill="#15111F"/>
<path transform="translate(428,711)" d="m0 0 10 1 4 5 1 3v12l-3 9-4 2h-11l1-23 1-8z" fill="#042D68"/>
<path transform="translate(300,378)" d="m0 0 4 1 9 9 14 11 18 14 11 7 15 10v2h-6l-16-10-20-14-14-11-14-12-6-2 2-4z" fill="#151221"/>
<path transform="translate(341,319)" d="m0 0 4 1 8 12 5 5v2h2l1 4 4 2v2h2l4 5 2 1v2l4 1 5 5 8 7 10 8 8 7 6 6v2h2l6 11 2 7v5h-2l-4-12-6-10-8-8-14-11-11-9-10-9-11-11-11-15z" fill="#0A173E"/>
<path transform="translate(597,403)" d="m0 0 4 1-2 4-4 4h-2l-1 5h2v2l-13 4-25 14-19 11h-3v-4l22-12 22-14 11-8z" fill="#15111F"/>
<path transform="translate(583,445)" d="m0 0 4 1h-2v2l-3 1 5 4 5 1v1h-6v2l-17 5-23 10-9 1 2-4 26-13 15-9z" fill="#15111E"/>
<path transform="translate(786,556)" d="m0 0h1v7l-9 23-5 11-9 19-11 19-6 8-5 3 2-5 12-19 8-15 11-24 9-25z" fill="#091944"/>
<path transform="translate(306,409)" d="m0 0 11 7 12 8 35 21 1 3-5-1-22-12-21-12-4-2h-9v-3h2l-1-7z" fill="#15111F"/>
<path transform="translate(311,443)" d="m0 0 11 7 22 12 16 8-1 4-9-3-26-11-6-2 4-4-5-2-5-5z" fill="#141121"/>
<path transform="translate(358,504)" d="m0 0h2l-1 4-11 4-15 5-7 5-2 4v11l-3-3 1-15h-7l-3-2 1-2h9l32-10z" fill="#15111F"/>
<path transform="translate(538,505)" d="m0 0 9 1 30 9h8l-4 4h-4l-1 6h-2l-4-5-14-6-15-5-3-2z" fill="#141221"/>
<path transform="translate(304,477)" d="m0 0 6 2 10 1 22 1 12 2 1 3-4 1-11-1h-17l-9 1-5-5-5-2z" fill="#081D4A"/>
<path transform="translate(383,544)" d="m0 0h5v3l-11 8-13 13-3 4-2-5h-8l-3-2 1-2 7 1 7-3 7-7 10-8z" fill="#151120"/>
<path transform="translate(671,628)" d="m0 0h6l3 5-3 6-4 3h-5l-1-1h-5l-3 3-1-5 1-3z" fill="#052A62"/>
<path transform="translate(366,526)" d="m0 0h5v3l-20 12-6 5-1 2h-2v-2l-13-3 1-2 6 1 9-3z" fill="#151220"/>
<path transform="translate(240,733)" d="m0 0 4 1 27 18 26 14 7 3v2l-4-1-23-11-13-8-9-5-11-8v-2l-4-2z" fill="#081945"/>
<path transform="translate(559,685)" d="m0 0 5 1 2 6-5 5-6 3-3-1-3-10z" fill="#042A63"/>
<path transform="translate(667,604)" d="m0 0h2l-1 7-10 7-9 6-4-1-1-3 4-6 5-2 5 2 6-9z" fill="#042B64"/>
<path transform="translate(512,543)" d="m0 0 8 4 15 14 2 1 2 10h-3l-5-8-7-7-14-11v-2z" fill="#141222"/>
<path transform="translate(291,208)" d="m0 0h5l2 3v5l-7 6-3 1-4-4-2-6z" fill="#042A63"/>
<path transform="translate(648,245)" d="m0 0 4 1 6 7 1 3-2 4-4 1-5-3-5-4 2-5z" fill="#042B65"/>
<path transform="translate(587,479)" d="m0 0 2 2-1 2-16 1v1l-20 1-8 1v-4l10-2 24-1z" fill="#151120"/>
<path transform="translate(555,319)" d="m0 0 2 1-12 17-11 13-9 9-11 9-2-2 9-8h2v-2l7-6 1-2h2v-2h2v-2h2l2-4 2-3h2l2-6 7-8z" fill="#091943"/>
<path transform="translate(486,131)" d="m0 0 17 2 28 6 20 6 1 2-7-1-22-6-21-4-15-2z" fill="#0A173F"/>
<path transform="translate(712,683)" d="m0 0 4 1-2 1-2 4-7 8-4 4h-2l-1 3-10 8h-2v2l-4-1 15-14 11-11z" fill="#0A1A41"/>
<path transform="translate(527,526)" d="m0 0 6 1 17 10 6 3v7l-4-2-5-4-12-8-6-3z" fill="#131224"/>
<path transform="translate(401,560)" d="m0 0h3l-1 7-2 4-1 12-2-1v-9h-6l-5 6-4 3-2-1 13-13 5-7z" fill="#0A153B"/>
<path transform="translate(128,594)" d="m0 0 3 3 13 25 9 15-1 2h-2l-2-3v-4h-2l-8-13-2-8h-2l-2-3v-4h-2l-2-4z" fill="#091943"/>
<path transform="translate(494,560)" d="m0 0 5 1 11 13 5 6-5-2-2-2-10-2-4-11z" fill="#081843"/>
<path transform="translate(598,768)" d="m0 0 3 1-5 4-7 3-17 7-10 3-5-1 3-2 20-7z" fill="#0B163B"/>
<path transform="translate(610,661)" d="m0 0 7 3 8 6-2 4-4 4-3-1-6-14z" fill="#06285F"/>
<path transform="translate(675,178)" d="m0 0 5 2 2 1v2l4 2 11 11 2 1v2l4 2 4 4v2h2v2l-4-1-16-16-8-7-6-5z" fill="#091943"/>
<path transform="translate(413,169)" d="m0 0h2l6 16v2h-11l2-16z" fill="#05245A"/>
<path transform="translate(193,691)" d="m0 0 4 2 18 18 7 6v2l-4-1v-2h-2v-2h-3v-2l-5-2-4-4v-2h-2v-2h-2l-4-5v-2l-3-1z" fill="#09173F"/>
<path transform="translate(540,182)" d="m0 0h1l-1 18-8-1-1-5 8-11z" fill="#052A62"/>
<path transform="translate(714,365)" d="m0 0h5l-5 5-8 5h-4l-2-4v-5z" fill="#042D67"/>
<path transform="translate(761,617)" d="m0 0 1 3-13 21-6 5v-3l13-21z" fill="#091740"/>
<path transform="translate(597,403)" d="m0 0 4 1-2 4-4 4h-2l-1 5h2v2h-8v-4l-2-1 11-9z" fill="#081741"/>
<path transform="translate(179,222)" d="m0 0 2 2-8 9-12 17-10 15-2-1 4-8 4-5 6-9h2l2-5 8-10z" fill="#0C1536"/>
<path transform="translate(320,481)" d="m0 0h22l12 2 1 3-4 1-11-1v-2l-21-1z" fill="#16111E"/>
<path transform="translate(312,515)" d="m0 0h14l2 2-1 4-3 5v11l-3-3 1-15h-7l-3-2z" fill="#0C1537"/>
<path transform="translate(411,799)" d="m0 0 16 1 38 1v1l-26 1h-13l-16-2z" fill="#0E1635"/>
<path transform="translate(494,468)" d="m0 0 3 1 4 10v13l-2 10-1 3-2-1 1-4 1-15-2-12z" fill="#0C1437"/>
<path transform="translate(583,445)" d="m0 0 4 1h-2v2l-3 1 5 4 5 1v1l-6 1h-10l-1-4 5-5z" fill="#071744"/>
<path transform="translate(569,514)" d="m0 0 16 1-4 4h-4l-1 6h-2l-4-5-2-1z" fill="#0A1941"/>
<path transform="translate(724,285)" d="m0 0h2l10 18 6 13-2 1-5-9-3-4v-4h-2l-2-3v-5h-2v-2h-2z" fill="#091944"/>
<path transform="translate(773,588)" d="m0 0 1 3-4 10-3 9-4 7-5 3 2-5 11-23z" fill="#091C47"/>
<path transform="translate(727,231)" d="m0 0 7 6 7 11 4 5 2 3v3l-3-1-10-15-8-10z" fill="#081B48"/>
<path transform="translate(327,292)" d="m0 0 4 2 9 17 2 7h-2l-8-14z" fill="#09173F"/>
<path transform="translate(475,409)" d="m0 0h2l-1 9v9l2 13-2 1-2-5-1-6v-13z" fill="#0E1533"/>
<path transform="translate(533,346)" d="m0 0 3 1-6 7-12 11-5 3v-3l8-7h2v-2l7-6 1-2h2z" fill="#0B1539"/>
<path transform="translate(413,454)" d="m0 0 3 2-6 8-7 8-3-1 8-11z" fill="#0A173E"/>
<path transform="translate(710,209)" d="m0 0 5 5 6 7 5 7v2l-4-2-8-10-5-6z" fill="#081944"/>
<path transform="translate(713,685)" d="m0 0v3l-9 10-3 3h-2l-1 3-8 7-2-1z" fill="#071745"/>
<path transform="translate(401,560)" d="m0 0h3l-1 7-2 4-1 12-2-1v-17l1-4z" fill="#15111F"/>
<path transform="translate(598,768)" d="m0 0 3 1-5 4-7 3-9 3 2-4z" fill="#0A173E"/>
<path transform="translate(492,798)" d="m0 0 9 1v1l-15 2h-14v-2z" fill="#0A1840"/>
<path transform="translate(776,580)" d="m0 0h3l-2 9-6 12-2-1 4-9 1-6z" fill="#081743"/>
<path transform="translate(621,668)" d="m0 0 4 2-2 4-4 4-3-1-2-6 7-1z" fill="#081B46"/>
<path transform="translate(527,139)" d="m0 0 7 1 17 5 1 2-7-1-18-5z" fill="#091842"/>
<path transform="translate(667,604)" d="m0 0h2l-1 7-6 4-2-2 4-8z" fill="#071845"/>
<path transform="translate(830,472)" d="m0 0h2l-1 21-2 3v-21z" fill="#131834"/>
<path transform="translate(675,178)" d="m0 0 5 2 2 1v2l4 2 4 4v2l-4-1-11-10z" fill="#091841"/>
<path transform="translate(200,648)" d="m0 0 7 6 4 5 3 4-1 3-9-10-4-5z" fill="#081A45"/>
<path transform="translate(601,371)" d="m0 0 2 1-1 5h-2l1 5 2 1h-5l-2-3 1-4z" fill="#081741"/>
<path transform="translate(265,256)" d="m0 0h3v2l-4 2-1 3-4 1-1 4-2 1-1 4h-2l-1-3 12-13z" fill="#061B4B"/>
<path transform="translate(348,563)" d="m0 0 8 1 6-1v9l-2-3-2-2h-7l-3-2z" fill="#0D1434"/>
<path transform="translate(299,328)" d="m0 0 3 1 1 4-2 6-5-1 2-6z" fill="#081843"/>
<path transform="translate(182,275)" d="m0 0 2 1-3 4h-2l-1 4-5 8h-3l10-16z" fill="#091841"/>
<path transform="translate(283,760)" d="m0 0 4 1 17 8v2l-4-1-17-8z" fill="#081A47"/>
<path transform="translate(417,397)" d="m0 0 5 5 2 7v5h-2l-4-12z" fill="#091A43"/>
<path transform="translate(413,169)" d="m0 0h2l3 9-5 2-2-1z" fill="#071A48"/>
<path transform="translate(306,409)" d="m0 0 4 4 2 5-8 3v-3h2l-1-7z" fill="#071743"/>
<path transform="translate(671,722)" d="m0 0 2 2-4 4-6 4h-2v2l-5 1 5-5z" fill="#091943"/>
<path transform="translate(68,468)" d="m0 0 2 4 1 15-2 4-1-4z" fill="#0F142F"/>
<path transform="translate(179,222)" d="m0 0 2 2-8 9-7 9v-3l12-16z" fill="#0C163A"/>
<path transform="translate(494,468)" d="m0 0 3 1 4 10v13h-1l-1-15h-2z" fill="#11142B"/>
<path transform="translate(732,300)" d="m0 0h2l8 16-2 1-5-9-3-4z" fill="#09173F"/>
<path transform="translate(203,245)" d="m0 0 3 1-7 9-4 3-2-1z" fill="#0A163C"/>
<path transform="translate(161,309)" d="m0 0h2l-1 4-5 12h-3z" fill="#091A43"/>
<path transform="translate(753,271)" d="m0 0 4 2 5 9 1 4-2 1z" fill="#091A44"/>
<path transform="translate(616,176)" d="m0 0 5 2 11 7v2l-5-2-11-7z" fill="#081B47"/>
<path transform="translate(460,540)" d="m0 0h6l-1 3 2 1-4 3-3-1z" fill="#081742"/>
<path transform="translate(329,541)" d="m0 0 7 1h5l3 3v3h-2v-2l-13-3z" fill="#0E1432"/>
<path transform="translate(587,479)" d="m0 0 2 2-1 2h-13l3-1v-2z" fill="#0A153A"/>
<path transform="translate(494,560)" d="m0 0 5 1 2 6-5 1-2-5z" fill="#151120"/>
<path transform="translate(263,272)" d="m0 0v3l-5 5h-3l-1-3 2-2z" fill="#0C1638"/>
<path transform="translate(739,247)" d="m0 0 5 4 3 5v3l-3-1-6-10z" fill="#091740"/>
<path transform="translate(384,795)" d="m0 0 15 2-3 2h-7l-5-1z" fill="#0A163C"/>
<path transform="translate(372,700)" d="m0 0 2 2 3 9v3l3 1-1 3h-2l-3-8-2-6z" fill="#091A45"/>
<path transform="translate(544,334)" d="m0 0 2 2-9 11h-2v-3h2l2-4 2-3h2z" fill="#0A1941"/>
<path transform="translate(634,260)" d="m0 0 2 1v7l-1-3-4 1-7 5 2-4z" fill="#081B48"/>
<path transform="translate(554,785)" d="m0 0 3 1-4 3-4 1h-7l1-2z" fill="#0A173E"/>
<path transform="translate(300,378)" d="m0 0 4 1 4 4-1 2-3-2-6-1-1-3z" fill="#09163E"/>
<path transform="translate(566,781)" d="m0 0 4 1-4 3-8 1-1-2z" fill="#0B173D"/>
<path transform="translate(597,327)" d="m0 0h2v5l1 5-2 1-2-3h-2l2-6z" fill="#091842"/>
<path transform="translate(191,260)" d="m0 0 1 4-3 4h-2v3l-4 3 1-4z" fill="#0B163C"/>
<path transform="translate(323,221)" d="m0 0 5 1h3l1 2h4v5l-11-6z" fill="#0C193D"/>
<path transform="translate(386,135)" d="m0 0h2v2l-16 4 1-3z" fill="#091942"/>
<path transform="translate(690,190)" d="m0 0 7 6 3 3-2 2-9-9z" fill="#081D4C"/>
<path transform="translate(521,358)" d="m0 0 3 1-10 9-2-2z" fill="#081A47"/>
<path transform="translate(423,417)" d="m0 0 3 4-1 9-2-2z" fill="#0C1435"/>
<path transform="translate(217,184)" d="m0 0v3l-10 9-2-1 5-5z" fill="#091943"/>
<path transform="translate(730,663)" d="m0 0h2l-2 5h-3v2l-5 2 6-8z" fill="#0A173F"/>
<path transform="translate(310,302)" d="m0 0h2l1 8-5-1 1-5z" fill="#081642"/>
<path transform="translate(194,206)" d="m0 0v3l-8 9-2-1 7-9z" fill="#0A173D"/>
<path transform="translate(232,171)" d="m0 0h2v2l-10 8-2-2z" fill="#091841"/>
<path transform="translate(322,453)" d="m0 0 6 3v3l-9-2z" fill="#071745"/>
<path transform="translate(421,434)" d="m0 0 2 1-1 7-2 4-2-1z" fill="#0A1840"/>
<path transform="translate(767,297)" d="m0 0 3 1 4 9-1 3-2-3z" fill="#0A1B44"/>
<path transform="translate(637,189)" d="m0 0 8 6 3 2v2l-5-2-6-6z" fill="#091C47"/>
<path transform="translate(350,79)" d="m0 0h5v2l-5 2h-5l1-3z" fill="#071946"/>
</svg>
